<svg width="256" height="160" version="1.1" viewBox="0 0 512 320" xmlns="http://www.w3.org/2000/svg">
	<defs>
		<filter id="blur" x="-.0227" y="-.0938" width="1.05" height="1.19" style="color-interpolation-filters:sRGB">
			<feGaussianBlur result="blur" stdDeviation="4 4"/>
		</filter>
		<filter id="shadow" x="-.089" y="-.321" width="1.18" height="1.71" style="color-interpolation-filters:sRGB">
			<feFlood flood-color="rgb(0,0,0)" result="flood"/>
			<feComposite in="flood" in2="SourceGraphic" operator="in" result="composite1"/>
			<feGaussianBlur in="composite1" result="blur" stdDeviation="10"/>
			<feOffset dx="0" dy="5" result="offset"/>
			<feComposite in="SourceGraphic" in2="offset" result="fbSourceGraphic"/>
		</filter>
		<linearGradient id="grad_fill" x1="186" x2="326" y1="390" y2="390" gradientUnits="userSpaceOnUse">
			<stop style="stop-color:#009" offset="0"/>
			<stop style="stop-color:#800" offset="1"/>
		</linearGradient>
	</defs>
	<path id="blob" d="m507 3.94c-0.0756-0.302-0.717 0.347-1.35 0.883-2.91 1.24-5.82 2.49-8.36 4.48-3.63 2.29-7.77 3.58-10.7 6.86-6.13 3.59-10.8 9.04-16.6 13.1-6.59 5.71-13.9 10.5-21.1 15.4-6.54 4.36-13.8 7.41-20.5 11.5-4.36 1.91-8.57 4.09-12.7 6.35-2.51 0.899-5.03 1.75-7.55 2.62-4.63 0.658-9.27 1.3-13.9 2.02 2.63-1.54 5.25-3.1 7.88-4.64 2.27-1.02 4.53-2.08 6.76-3.19 5.89-3.62 12.2-6.49 18.5-9.27 1.95-0.38 4.56-2.09 6.31-3.86l4.74-5.1c10-5.93 20.1-11.8 30.1-17.7-33.1 12.8-66.2 25.6-99.3 38.4 15.5-8.71 30.9-17.4 46.4-26.1l-0.346 0.383c4.17-0.348 8.07-3.05 11.3-5.93 0.631-0.546 1.23-1.12 1.86-1.68 6.82-3.84 13.6-7.7 20.5-11.5-4.45 1.93-7.03 0.821-10.1 1.28 0.164-0.188 0.352-0.351 0.514-0.541 1.39-1.62 3.15-6.22-0.721-3.92-2.56 2.95-5.51 4.31-8.12 6.05-0.901-0.0283-1.8-0.128-2.68-0.473-2.1-1.31-8.01 3.4-7.46-0.224 1.02-1.92 6.51-6.53 1.21-4.97-2.79 1.02-5.8 0.0091-8.7 0.027-1.75 0.0842 1.34-4.99-2.23-3.36-8.55 4.99-16.2 11.4-25.1 15.8-8.94 4.72-18.1 9.09-26.4 14.9-9.82 5.09-19.7 10.1-29.6 15 6.18-3.69 12.4-7.38 18.8-10.7 1.63-1.14 8.43-4.1 7.28-4.37-11.9 3.21-24 5.97-34.8 12.2-5.94 3.11-11.9 6.28-17.6 9.79 0.234-0.96 0.522-1.91 0.694-2.88-1.16-0.629-1.69-1.34-1.89-2.1 7.85-3.43 15.6-7.03 23.1-11.2 17.8-9.71 35.9-18.9 53.9-28.3 3.62-2.28-2.36-4.51-3.43-6.89-4.22-4.42-11-3.97-16.6-3.54-14.6 1.96-27.5 9.57-40.8 15.4-18 8.66-35.7 17.7-53.4 27-7.82 3.49-16 6.28-23.7 9.92-1.32-1.68-2.83-3.32-3.52-5.27 0.978-1.01 1.96-2.02 2.93-3.02-0.0849-0.0236-0.17-0.0265-0.255-0.0477 3.17-1.83 6.35-3.66 9.6-5.36 1.09-0.646 6.75-3.57 5.38-3.3-5.42 2.85-10.9 5.63-16.3 8.42-2.67-0.295-5.34 0.371-8 1.09 0.858-1.81 1.63-3.64 2.04-5.61-1.31-1.69-2.9 0.812-4.28 1.38-3.45 2.33-6.9 4.65-10.3 6.98-0.903 0.184-1.8 0.382-2.71 0.555 1.16-1.51 2.4-2.96 3.89-4.19 1.24-0.861 2.36-2.78 3.24-4.22 3.45-1.32 6.84-2.8 9.74-5.17 2.4-1.94 5.53-2.82 7.34-5.42 4.93-5.44 9.87-10.9 14.8-16.3-2.69 1.4-7.25 3.72-8.97 4.55 1.77-0.935 5.53-2.78 1.76-0.802-9.97 5.51-20.5 9.92-30.1 16.1-2.56 1.54-5.04 3.2-7.52 4.85 0.378-0.429 0.756-0.858 1.13-1.29 1.5-1.26 3.36-2.75 3.9-3.19 3.64-2.87 7.39-5.62 11.1-8.38-3.71 2.29-7.41 4.6-11 7.04 0.732-0.83 1.46-1.66 2.2-2.49-1.99 1.06-4.03 3.49-7.05 5.21-3.83 1.95-7.43 4.28-10.6 7.24-0.0834 0.0677-0.169 0.135-0.253 0.203-0.947 0.259-1.88 0.553-2.77 0.956-2.51 1.55-4.93 3.21-7.39 4.84-0.807-0.399-1.75-0.56-2.71-0.694l1.16-1.22c-1.1 0.239-2.19 0.52-3.28 0.779-0.891-0.177-1.75-0.397-2.39-0.937 0.438-0.42 0.854-0.866 1.3-1.28 5.51-4.04 10.5-8.78 15.6-13.3-1.75 1.24-5.31 4.06-5.8 4.62 3.15-2.43 6.33-4.84 9.31-7.46-0.494-0.0482 1.79-2.13 2.43-3.01 3.23-3.64 6.46-7.29 9.69-10.9-9.12 7.06-17.8 14.7-26.6 22.1-2.76 2.2-5.11 4.8-7.28 7.56-1.75-0.42-2.91 1.46-4.33 2.31-1.71 1.38-3.42 2.75-5.13 4.13-0.425 0.152-0.85 0.3-1.27 0.458 1.26-1.68 2.48-3.38 3.66-5.1 4.14-4.39 8.38-8.68 12.9-12.7 4.82-4.66 10.2-8.77 14.7-13.8l-9.18 5.53c-2.15 2.49-4.61 4.66-7.05 6.85 4.07-3.99 7.71-8.42 12.4-11.7 4.48-3.37 7.42-8.29 11.8-11.8 0.486-0.733-2.67 0.558-3.72 0.68l-10.6 2.76c-1.81 2.75-2.18 6.54-5.68 8.38-2.53 3.27-4.85 8.09-6.57 11.1-1.41 1.88-4.37 7-0.572 3.49-1.51 1.44-2.97 2.93-4.27 4.58-0.243 0.261-0.494 0.513-0.738 0.773-0.287-2.31 1.63-5.44 1.89-6.06l-12 3.35c0.672-0.684 1.29-1.41 2.04-2.03-1.42 0.882-2.84 1.76-4.26 2.65l-19.7 5.5c0.34-0.667 0.655-1.35 0.976-2.03 3.28-3.26 7.38-5.59 10.1-9.43 2.39-1.13 3.7-2.49 3.37-5.22 0.231-2.84 0.463-5.68 0.694-8.53-1.22 4.33-5.73 5.01-8.29 8.07-0.207 0.237-0.377 0.528-0.574 0.779 0.263-2.83 0.423-5.7 2.26-8.05 2-2.77 3.71-6.15 2.48-9.62-0.059-2.73 0.0148-4.28-2.86-2.75l-5.15 1.56c-1.71 4.68-5.49 8.7-5.18 14-0.211 4.92-2.17 9.84-1.07 14.7-0.0805 0.024-0.146 0.0672-0.228 0.0891-1.58 2.22-4.26 3.29-4.71 4.45-1.5 0.966-1.85 2.89-2.26 4.85l-2.85 0.796c0.24-1.83 0.447-3.67 0.75-5.48 3.02-3.57 1.03-8.42-3.77-7.18-12 3.87-24 7.74-35.9 11.6-0.45-1.05-0.714-2.16-0.22-3.53 0.686-4.4-0.322-8.88 0.367-13.3 1.98-2.92 0.892-6.18 1.71-9.27 0.877-2.09-1.62 0.634-2.42 0.947-1.76 1.26-3.52 2.52-5.28 3.78 1.02 2.79 0.997 1.14-0.379 0.614-0.594 4.31 3.72 6.92 2.92 11.2 0.0871 3.63 0.361 7.31-0.715 10.8-0.212 0.0685-0.424 0.137-0.636 0.205-0.566 1.57-3.83 5.05-0.754 2.7 0.688 3.83-0.938 7.93-2.86 11.3-2.27 4.17-3.51 8.86-4.22 13.5-0.356-0.657-0.866-1.07-1.71-0.522 0.211 1.74 0.459 7.91 1.63 5.01 0.0176 0.503 0.065 1.01 0.0643 1.51-3.55 2.52-7.07 5.06-10.6 7.63-1.21-2.29-2.37-4.6-3.26-7.03-1.75-6.57-2.32-13.4-2.19-20.2 0.196-4.42 1.98-9.05-0.137-13.3-1.78-4.32-1.8-9.11-3.04-13.5-1.67-2.69-3.62-0.857-5.21 0.622-5.72 4.63-11.4 9.25-17.2 13.9 2.07 3.18 3.43 6.78 5.34 10 0.253 2.84 1.76 6.07 2.73 7.8 0.461-0.844 0.881-1.86 1.33-2.82 2.39 2.38 4.94 4.78 7.56 6.29-2.15-2.85 2.44 2.57 3.41 3.48 3.01 2.7 3.55 7 5.15 10.6 0.514 2.28 1.2 4.52 1.89 6.75-0.0372 0.0269-0.0748 0.0539-0.112 0.0809 0.0207 0.0144 0.109-0.01 0.135 2e-3 0.772 2.5 1.55 5 2.13 7.55 0.0569 1.93-0.378 4.11-0.545 6.22-1.99 0.497-3.98 0.973-5.99 1.35 0.914-0.213-4.42 0.502-5.23 2.46-2.9 3.08-5.81 6.16-8.71 9.25-0.0044-0.0585 0.0117-0.124 0.0063-0.182-0.858-4.77 0.604-6.35-0.775-10.9-0.534-6.97-0.273-14.3 1.61-20.9 0.831-1.08 1.71-6.95-0.111-9.24-1.82-2.3-5.04-1.99-5.53 3.17-0.497 5.16 0.424 8.48 0.696 11.8-0.0887 0.312-0.171 0.769-0.209 1.47-0.768 4.17-1.1 8.42-0.597 12.6-0.437-0.896-0.94-1.76-1.55-2.59-5.48 4.65-11 9.29-16.4 13.9 4.16 1.5 3.36 7.63 7.82 8.94 4.47 2.48 9.99 3.91 13.2 8.14-1.59 1.21-3.19 2.42-4.78 3.63 0.643 2.13 2.05 3.37-0.487 1.77-1.66 3.51-1.72 8.41-0.126 12 1.44 2.92 3.11 5.72 4.71 8.55-7.52 5.9-15 11.8-22.5 17.7 3.1 0.477 6.3-2.61 9.42-3.48 1.94-1.03 7.03-3.09 8.38-4.1 1.86-0.692 3.7-1.43 5.54-2.14-4.89 2.51-9.05 6.22-13.8 8.98-1.41 0.801-4.21 2.78-0.987 1.03 2.2-1.09 6.16-2.81 7.57-2.93-1.53 0.802-3.59 1.68-0.68 0.369 2.14-0.591 3.68-2.02 5.02-3.71 1.23-1.35 2.47-2.7 3.7-4.05 0.229-0.0885 0.459-0.176 0.688-0.265-2.22 1.16-3.16 5.97-2.52 9.01-1.64 1.62-3.11 3.3-3.59 5.43-0.185 0.0726-0.202 0.0271-0.431 0.131-0.885 0.257-1.77 0.512-2.66 0.769 0.101 3.38-1.9 5.57-2.29 9.87-0.279 2.24-0.471 4.2-0.906 6.12-4.91 6.36-9.41 13-13.4 20-2.19 3.71 2.64-2.55 3.6-3.59 6.33-7.71 13.5-14.6 20.7-21.5-0.49 1.91-0.907 3.84-1.53 5.69 3.61-4.76 7.35-9.42 10.5-14.5 1.45-1.43 2.93-2.84 4.34-4.31 0.76-0.78 1.55-1.53 2.32-2.3 0.173 0.984 0.397 1.96 0.672 2.92-0.649 0.9-1.27 1.83-1.95 2.7-0.686 1.79-5.05 6.35-3.41 6.38 0.693-0.179 1.39-0.358 2.08-0.537-0.438 0.441-0.855 0.903-1.3 1.34-1.71 2.54-6.42 5.83-5.61 8.54 2-0.165 3.5-1.95 5.28-2.83l9.52-6.09c0.706 1.15 1.38 2.24 2.14 3.34-0.873 0.792-1.74 1.6-2.68 2.29l-14.9 16.5c-2.15 0.574-4.3 1.19-6.29 2.16 2.3-3.56 4.85-6.94 7.92-9.89 1.47-2.01 4.29-4.15 0.4-2.79l-2.33 0.599c-3.67 1.51-5.09 5.3-7.04 8.37-1.86 2.2-3.45 4.6-4.9 7.07-1.9 0.868-3.81 1.73-3.6 2.6 0.543 0.39 1.15 0.616 1.75 0.854-1.25 2.55-2.36 5.16-3.25 7.86-1.22 2.67-1.04 6.48-3.05 8.44 2.3-2.07 3.52-5.17 5.18-7.83 1.9-0.54 3.65-1.6 5.39-2.73 6.99-5.61 15.9-12 22.9-16.2 12.5-6.31 23.8-14.8 36.1-21.6 14.6-8.47 28.9-17.4 43.7-25.5-6.99 5.61-13.9 11.3-20.9 17-9.26 4.01-18.4 8.22-27.2 13.3-5.93 3.5-12.8 6.04-17.1 11.7-3.56 3.25-6.09 8.4-10.2 10.7 1.9-2.15 3.81-4.29 5.71-6.44-4.11 2.78-7.78 6.18-11.6 9.4-1.86 0.934-3.71 1.87-5.57 2.81-1.97 2.4-5.83 4.16-8.62 6.16-4.26 2.79-8.63 5.4-13 7.91 8.97-3.02-4.27 2.41-6.34 3.43-1.79 0.81-3.59 1.61-5.38 2.41 0.561-2.67 0.669-5.47 2.34-7.74 1.5-1.12-0.613-2.28-2.52-0.893l-0.104 0.0331c-0.921 2.77-0.716 6.33-0.734 9.22-2.32 1.27-4.51 2.75-6.12 4.88-2.83 3.12-5.66 6.24-8.49 9.36 10.9-3.95 22.2-8.2 33-11.9 5.76-2.09 11.6-4.01 17.3-6.33 0.26-0.137 1.21-0.426 1.81-0.636-2.66 3.14-5.1 6.43-6.7 10.3-0.834 3.31 3.68 2.14 5.07 0.624 6.26-4.1 12.5-8.2 18.8-12.3-7.96 6.78-16 13.5-24 20.2-2.86 2.71-8.26 3.67-7.42 8.58-1.25 2.05-0.911 4.65 1.92 2.74 3.64-1.82 6.91-4.39 10.4-6.51 4.28-2.78 8.55-5.56 12.8-8.34 3.07-0.464 6.55-0.555 8.92-1.17-0.0052 6e-3 -0.0114 0.0122-0.0166 0.0187-3.63 4.94 2.22 0.956 7.73-2.16 2.42-0.784 4.84-1.6 7.21-2.56-0.213 0.169-0.437 0.322-0.649 0.493-9.76 7.52-18.7 16-28.2 23.8 6.34-3.85 12.7-7.7 19-11.5-2.39 1.75-4.49 3.76-5.82 6.45-4.15 2.33-8.29 4.67-12.5 6.82-3.56 1.17-7.16 2.28-10.8 3.41 3.73-7.4-3.93 0.309-5.63 1.87-0.435 0.153-0.886 0.28-1.32 0.437-1.19 1-0.995 1.17-0.433 1.11-4.49 3.87-4.18 5.53-9.42 10.7-3.29 2.4-9.32 8.62-7.83 10.6s8.94-2.85 11.5-9.64c3.72-3.74 9.96-7.77 12.6-13.5 3.18-0.888 6.37-1.78 9.55-2.66 1.54 0.192 3.08 0.379 4.63 0.595-3.77 3.1-4.12 8.33-8.6 9.9 5.55-0.947 6.43-7.13 12.9-9.35 3 0.255 6 0.237 8.99-0.489 6.27-1.05 12.3-2.89 18.2-5.11-1.83 2.15-3.68 4.28-5.56 6.39 0.0307-2.35-1.56-2.06-3.31-0.524-3.87 2.74-7.33 6.08-11 9.07-3.91 3.77-7.32 8.04-11.1 11.9-2.03 3.36-0.103 2.16 1.79 0.792 2.89-1.84 5.78-3.69 8.68-5.53-0.79 0.822-1.58 1.64-2.37 2.46 2.01-1.18 10.7-9.23 8.7-7.96 5.48-6.43 11.9-12.8 17.2-17.8 9.89-3.99 19.5-8.95 29.2-13.2 13.7-6.62 27.6-13 42.1-17.8 3.41-1.17 6.78-2.45 10.2-3.67-1.09 1.76-2.49 3.32-3.59 5.07-0.581 0.917-1.08 1.88-1.57 2.85-0.933 0.847-1.82 1.73-2.72 2.62-5.4 3.13-10.8 6.25-16.1 9.52-3.51 3.17 3.68-0.516 5.28-0.686 4.77-1.54 9.46-3.95 14.6-3.42 4.65 0.0517 9.33 0.271 13.9-0.873 4.42-0.672 8.76-1.67 13.1-2.78-1.31 0.715-2.66 1.68-3.7 1.98-13 6.12-26.1 12-38.2 19.7-10.7 6.69-21 13.9-31.3 21.3-6 4.73-12.3 9.19-18.1 14.1 2.02-1.27 6.96-5.25 10.1-7.54 4.33-2.97 8.03-7.05 13.2-8.59 8.76-3.47 17.3-7.52 25.7-11.8 6.79-2.52 13.4-5.55 20.3-7.79 3.78 0.746 7.07-1.39 9.92-3.73 14.4-12.3 27.9-22.1 40.4-26.5 15.2-4.27 28.8-13 43.5-18.9 5.76-2.15 11.9-3.19 17.3-6.3 10.1-5.49 17.7-7.13 25.3-11.4 3.73-2 7.71-3.55 11-6.35 0.43 0.504 1.03 0.953 2.05 1.26 1.25-0.0261 2.53 0.0523 3.8 0.0726-1.31 2.9-2.18 6.05 1.18 7.38 3.93-1.14 7.1-4.19 10.7-6.2 1.66-1.08 3.28-2.24 4.94-3.34 1.66-0.394 3.32-0.745 5-0.883 4.02-0.487 7.86-0.178 11.6-2.05 2.19-0.996 7.83-1.01 3.91-4.08-1.77-2.58-4.59-3.08-7.48-2.9 1.05-0.974 2.13-1.92 3.11-2.97 1.25-1.28 2.78-2.92 3.47-4.56 7.08-1.13 14-4.12 19.8-6.34 1.72-1.7-3.96-2.5-5.05-3.56-2.93-0.764-6.22-0.635-9.28-0.75 1.36-1.67 2.63-3.02 3.92-4.48-2.6 0.487-4.89 2.6-7.29 4.14-0.826-0.21-1.16 0.343-1.67 0.854 0.461-1.51 0.541-2.9-0.487-3.98 0.0113-0.0206 0.0217-0.0416 0.0331-0.0622 6.18-0.798 12.4-1.56 18.1-4.3 4.86-1.96 9.87-3.64 15-4.85-1.34 0.857-3.94 1.64-0.991 0.58 2.49-0.925 5.16-1.56 6.78-3.82l25.7-25.8c-1.25-1.52-2.07-3.2-0.991-0.481-1.88 1.18-4.43-0.2-6.28-2.24 3.43-0.307 6.97-0.0144 9.99-2.07 4.25-2.38 8.56-4.86 12.4-7.81 0.536-2.85-3.44-5.09-6.25-4.04-3.25 0.239-6.49 1.57-9.08 3.44-2.81 2.93-5.61 5.86-8.42 8.79-0.473-0.847-0.809-1.73-0.875-2.57-3.58-1.88-8.1 1.19-11.9 1.66-11.3 2.01-20.4 7.95-30.5 8.56 0.0274-0.023 0.0535-0.0474 0.0809-0.0705 7.83-1.52 14.8-7.45 21.8-9.47 5.84-1.46 10.5-3.9 17.6-8.57 7.86-6.27 15.9-12.3 23.6-18.7 2.09-2.22 4.45-4.24 5.56-7.17 2.01-3.7 4.02-7.41 6.03-11.1-0.855-0.821-1.3-1.87-1.64-2.98 3.24-1.17 6.32-2.91 9.25-4.68 2.13-0.946 4.5-0.896 6.07-2.93 0.626-3.56 3.91-7.43 2.29-11.3-2.85-4.4-8.76-2.14-13.1-2.92-5.73-0.434-11.5-0.958-17.2-1.3 1.17-1.57 2.33-3.16 2.61-4.99 0.85-4.13-5.15-3.33-7.57-2.36-0.419 0.144-0.818 0.33-1.23 0.489 2.66-1.51 5.34-2.97 8.2-4.1 2.79-1.63 7.94-4.64 8.3-5.16 3.37-2.74 8.11-3.13 10.8-6.73 3.41-1.91 7.22-3.42 10.4-5.81 3.84-1.54 7.18-3.98 10.7-6.19 5.23-3.63 9.95-7.99 14.9-12.1 1.12-1.25 2.25-2.51 3.37-3.76-1.52-0.643-2.05-0.888-2.27-1.79zm-56.2 12c3.64-3.22 5.76-4.28 10.2-5.71-4 2.23-6.17 3.48-10.2 5.71zm-365-10.7c-0.969-0.0558-2.13 0.371-3.05 0.825-4.43 1.54-8.87 3.08-13.3 4.62-1.11 4.46 0.527 8.63 5.18 10.1 2.6 2.12 6.04 3.12 7.26-0.908 2.81-3.69 4.88-8.03 5.82-12.6-0.163-1.48-0.942-2.02-1.91-2.07zm215 2.8c-8.25 1.79-16.5 3.59-24.8 5.38-3.98 1.28-5.58 4.14-0.535 4.94 5.62-0.963 10.6-3.89 16-5.7 2.61-1.05 9.07-4.09 9.28-4.63zm-178 3.32c-4.43-0.616-8.32 6.67-12.7 7.28 4.64 0.0309 9.03 0.0495 11-0.124 3.46-1.14 6.12-6.54 1.69-7.16zm0.299 13.5c-0.34-0.147-0.89 0.0516-1.71 0.796-7.24 5.39-14.5 10.8-21.7 16.2-2.99 4.74 4.18 4.18 6.93 3.49 2.52-0.656 5.11-1.21 7.04-3.06 3.95-3.15 6.25-7.74 8.68-12.1 0.955-1.32 1.82-4.88 0.796-5.32zm16 0.431c-0.39-0.0256-0.841 0.0359-1.36 0.203-0.646 5.24-1.29 10.5-1.94 15.7 3.59-0.965 4.01-6.07 5.64-8.99 0.0871-2.32 0.391-6.76-2.34-6.94zm353 4.67c-0.185 0.0145-0.725 0.229-1.79 0.746-3.97 0.209-7.58 2.25-11.3 3.67-2.76 1.52-6.22 2.22-8.26 4.73l-6.35 7c3.82-2.15 8.07-3.43 11.8-5.96 4.44-2.23 8.59-4.92 12.6-7.79 1.21-0.695 3.85-2.44 3.3-2.4zm-218 0.439c-0.15-0.0308-0.709 0.09-1.88 0.433l-21.7 5.16c2.62 0.827 4.89 3.66 7.73 2.2 4.27-0.777 7.69-3.72 11.6-5.44 1.51-0.814 4.74-2.26 4.29-2.35zm-197 6.44-2.72 0.897c2.48 3.37 1.14 8.55 1.95 12.8-0.408 3.74 1.6 7.46 0.406 11.2-1.46 3.42 3.36 1.47 1.83-1.03-0.0888-3.78-1.17-7.37-1.2-11.4 0.457-3.99-1.3-9.63-0.265-12.4zm141 13.5c-6.43 3.96-12.9 7.91-19.3 11.9-0.677-0.317-1.34-0.648-2.01-0.978 0.398-0.494 0.81-0.968 1.23-1.43 6.8-2.91 13.5-6.14 20.1-9.46zm-1.1 6.09c0.685 0.02 0.754 0.255-1.02 0.833-0.206 0.068-0.416 0.125-0.622 0.193 0.21-0.288 0.429-0.569 0.647-0.852 0.362-0.0465 0.74-0.182 0.995-0.174zm210 25.9c0 0.173-0.314 0.14-0.473 0.209 0.0693-0.0621 0.14-0.122 0.209-0.184 0.0878-8e-3 0.263-0.113 0.263-0.0248zm-398 1.95c0.127 3.93 3.13 7.16 5.65 10.2 1.81 3.82 4.17 7.39 4.99 11.6 0.216 1.84 1.62 3.94 0.754 0.68-0.58-3.57-1.03-7.22-2.92-10.4-2.19-3.35-0.687-7.53-2.62-10.9-1.7-4.59-5.98-5.11-5.86-1.18zm50.5 11.9c-0.289 2.07-0.67 4.14-1.14 6.18-0.67 0.998-1.41 1.84-1.71 3.36-0.407 0.957-0.745 1.98-1.05 3.03-0.702-0.888-1.32-1.83-1.69-2.91-1.06-2.37-2.32-4.66-3.56-6.95 1.68-0.473 3.47-1.02 4.62-1.26 1.5-0.496 3.02-0.977 4.53-1.46zm404 0.294c-2.02-0.269-4.95 0.982-6.12 2.01-3.71 3.86-7.41 7.72-11.1 11.6 2.94-2.51 7.37-1.39 10.3-3.97 2.52-2.49 8.36-3.61 8.98-7.13 0.0208-1.63-0.864-2.34-2.08-2.5zm-427 1.62c0.241-3.73-5.64-2.64-3.43 1.08 2.21 3.72 0.193 6.47 2.19 6.32-1.84-2.59 0.999-3.67 1.24-7.4zm428 19.4-4.22 4.39c1.73-0.919 6.51-2.86 4.22-4.39zm-417 0.728c0.0725 0.142 0.115 0.297 0.201 0.433 1.1-1.13-1.89 4.56 0.406 5.56 0.0368 0.235 0.116 0.484 0.16 0.723-2.81 2.13-5.62 4.26-8.42 6.39l-9.98 2.89c0.467 1.38 0.657 2.76 0.721 4.14-0.819 0.622-1.64 1.24-2.46 1.87-0.39-1.21-0.784-2.42-1.1-3.65-0.23-2.18-0.297-4.38-0.495-6.57 0.249-1.05 0.38-2.07 0.363-3.06 6.32-3.4 13.4-5.1 19.8-8.34 0.28-0.129 0.561-0.257 0.842-0.386zm374 50.8c-0.604-0.0211-1.85 0.187-2.66 0.323-4.49-0.232-9.17 1.66-13.2-0.189-3.31 1-5.11 4.13-7.55 6.36-1.09 1.14-2.18 2.27-3.27 3.41 5.02-1.29 9.81-2.7 14.5-5.18 3.8-0.433 7.59-1.46 11-3.67 1.77-0.786 1.81-1.04 1.21-1.06zm-391 13.8c0.021 0.315 0.562 0.217 0.918 0.265 1.06 0.648 2.63 0.602 4.23 0.495-0.0172 0.0291-0.0346 0.0581-0.0518 0.087-1.98 1.89-3.98 3.77-5.91 5.72-4.83 4.96-9.37 10.2-13.7 15.6 1.6-3.69 3.12-7.41 4.13-11.3 0.708-1.36 1.92-2.9 1.86-3.47 0.853-0.626 1.83-1.58 2.8-2.51 0.397 0.209 0.793-0.146 1.1-0.935 0.334-0.278 0.697-0.62 0.972-0.761 1.26-1.02 2.46-2.09 3.65-3.19zm357 2.78c-1.86 1.12-3.96 1.91-5.66 3.23 0.804 2.18 1.85 0.917 2.9-0.367zm-389 14.9c-3.74 2.44-5.73 5.74-9 8.57-2.34 1.26 1.94 2.03 2.53-1.24 2.16-2.44 4.31-4.89 6.47-7.33zm22.4 14.1c0.198-1.3 1.77-2.68 2.52-6.1-1.17 3.27-2.98 5.38-3.79 6.21-1.59 0.01-2.37 1.81-1.39 2.41 0.984 0.601 2.47-1.23 2.66-2.53zm-11.9-4.64c-0.686-0.0923-2.06 0.968-2.94 1.54-3.33 2.06-6.66 4.13-9.99 6.19-3.34 3.15-5.61 7.16-6.36 11.7 0.656 0.845 4.2-3.98 5.85-5.17 4.54-4.17 7.69-10.1 13.7-12.5 0.334-1.24 0.169-1.71-0.243-1.76zm63.2 5.11c-1.31 1.08-2.62 2.18-3.94 3.26-6.22 5.29-11.5 10.6-16.3 15.7-3.07 0.711-6.13 1.44-9.17 2.22 1.42-1.14 2.83-2.27 4.25-3.41 1.8-0.819 3.45-1.84 4.66-3.47l6.09-6.54c2.58-1.46 5.13-2.97 7.79-4.28 2.2-1.16 4.41-2.31 6.61-3.48zm331 0.839c-0.458 0.0253-0.927 0.113-1.41 0.284-6.23 1.42-12.4 3.2-18.8 3.9-11.5 1.79-22.3 6.31-33.1 10.5-11.4 4.48-22.3 9.95-33.7 14.3-7.75 2.63-15.8 5.42-23.4 7.95 8.41-2.5 16.8-5.35 25.2-7.63 16.2-0.909 32.7-0.94 48.5-5.26 7.71-2.06 15.9-1.95 23.4-4.67 2.62-1.17 6.12-0.878 8.11-3.08 4.79-4.98 9.57-9.95 14.4-14.9-3.42 1.33-6.08-1.54-9.28-1.36zm-269 13.7c-6.57 5.56-13 11.2-19.5 17-5.12 2.28-10.3 4.54-15.4 6.74-13.7 6.57-24.5 13.5-36.6 20.1 8.66-9.48 20.5-16.7 29.7-23 2.84-1.93 5.72-3.81 8.6-5.7 9.44-4.32 18.9-8.73 28.3-13.1 1.61-0.693 3.25-1.31 4.89-1.94zm-112 1.19-5.88 6.52c1.23-2.03 2.43-4.09 3.54-6.18 0.79-0.0136 1.58-0.138 2.34-0.34zm394 5.48c0 3.19-6.31 1.43-9.08 2.81-5.88 6.13-11.8 12.3-17.6 18.4 5.05 0.488 9.8-1.93 14.7-2.97 12.7-3.48 25.3-7.81 37.5-12.6 0.379-1.78-4.45-3.84-6.36-4.91-5.23 1.27-10.8 1.01-15.9-0.669-1.06-0.116-3.18-1.08-3.18-0.0187zm-31.5 6.18c-6.15 1.15-12.5 1.13-18.5 3.15-10.5 2.79-19.8 8.58-29.4 13.5 0.792 1.33 6.19 1.23 8.8 1.86 5.87 0.773 11.8-0.0465 17.6-0.796 2.39 0.177 4.63 0.113 5.99-2.09 5.16-5.2 10.3-10.4 15.5-15.6zm-353 13.6c-0.219 0.0117-0.67 0.12-1.43 0.352-2 0.475-4.01 0.951-6.01 1.43-3.51 3.33-5.91 7.51-8.33 11.6 4.89-3.38 9.35-7.48 13.6-11.7 1.39-0.963 2.81-1.8 2.15-1.76zm109 4.67c-5.61 3.98-10.7 8.72-16.1 12.9-6.31 5.26-13 10.2-18.6 16.2 5.11-3.15 10.2-6.29 15.3-9.44 5.63-7.35 12.6-13.5 19.4-19.7zm-39.5 14.6c-2.19 1.34-4.39 2.68-6.58 4.01-0.734 1.05-5.68 6.28-3.32 4.82 3.31-2.93 6.63-5.85 9.9-8.83zm-102 15.1c-3.87 2.32-8.54 5.39-12.8 8.07-6.01 1.76-2.58 8.19 1.47 2.79 3.13-1.24 5.29-4.48 7.73-6.77 0.863-1.23 3.81-3.98 3.55-4.1zm339 5.7c-3.78 0.251-7.55 1.07-11.3 0.462-1.57 0.0827-8.65 0.972-3.49 1.06-4.86 0.0176-9.74-0.227-14.5 1.02-3.49 0.845-6.78-0.865-10.3 0.487-4.1 0.362-8.07 1.62-12.2 1.24-2.66 1.16-5.49-2.23-7.43 1.07-0.973 0.976-1.95 1.95-2.92 2.93 3.72-0.603 7.6 0.0915 11.3-1 3.53-0.577 4.59 0.678 3.81 0.497 3.55-0.647 7.8-1.3 11-0.597-2.81 0.435 3.38 0.131 4.18 0.168 5.33-0.952 11 0.872 16.5 0.158 4.02 0.186 7.92 2.07 11.9 0.419 5.1-1.52 10.2-3.06 15.4-4.4 0.0527-2.21-5.62-3.25-8.08-3.5-1.27-0.115-2.53-0.0941-3.79-0.0106zm-115 3.69c-6.07 0.122-12 1.49-18 2.08-2.59 0.887-5.72 1.01-7.39 3.43-3.03 3.15-6.06 6.3-9.09 9.45 3.9 0.251 4.86-1.62 8.83-2.33 9.39-2.52 19.2-2.71 28.7-4.65 9.36-1.67 18.6-3.88 27.9-5.98 0.0743-1.44-6.01-0.627-8.04-1.31-7.6-0.495-15.2-0.304-22.9-0.692z" style="font-variation-settings:normal;paint-order:markers fill stroke;stop-color:#000000"/>
	<path id="grad" d="m44.9 192 34.5 102h8.87l-34.5-102zm24.9 0 34.5 102h30.9l-34.5-102zm35.5 0 34.5 102h232l34.5-102zm306 0-34.5 102h30.9l34.5-102zm46.8 0-34.5 102h8.87l34.5-102z" style="fill-rule:evenodd;fill:url(#grad_fill);filter:url(#blur);paint-order:markers fill stroke;stroke-linecap:round;stroke-width:2"/>
	<path id="parse" d="m122 205v74.8h13.6v-28.9h23.7l9.38-9.36v-27.2l-9.38-9.35zm68.1 0-21.4 74.8h13.6l4.69-18.4h18.8l5.28 18.4h13.1l-21.6-74.8zm39.9 0v74.8h13.6v-28.9h9.03l11.3 28.9h15.1l-11.7-28.9 9.38-9.36v-27.2l-9.38-9.35zm66 0-9.38 9.35v25l9.38 9.36h23.1v17.3h-32.2v7.83l5.98 5.96h31.1l9.38-9.35v-26.1l-9.38-9.47h-23.1v-16.1h32.2v-7.83l-5.98-5.96zm49 0v74.8h46.8v-13h-33.1v-17.7h22.4v-13.6h-22.4v-17.7h33.1v-13zm-209 13h19.5v20h-19.5zm108 0h19.5v19.4h-19.5zm-47.2 8.77 5.74 22.5h-11.6z" style="fill:#fdfdc8;filter:url(#shadow)"/>
	<path id="NDF_red" d="m94.4 60.8v12.3h36.6l-8.79-12.3zm79.1 0v12.3h28.1v-12.3zm36.9 0v12.3h106c-3.63-8.19-9.49-12.3-17.6-12.3zm135 0c-8.09 0-13.9 4.09-17.6 12.3h97.6v-12.3zm-251 14v12.2h46.5l-8.73-12.2zm79.1 0v12.2h28.1v-12.2zm36.9 0v12.2h107v-7.81c0-1.29-0.175-2.75-0.526-4.39zm117 0c-0.352 1.64-0.526 3.1-0.526 4.39v7.81h98.5v-12.2zm-233 14.1v12h56.4l-8.56-12zm79.1 0v12h28.1v-12zm36.9 0v12h28.1v-12zm79.1 0v12h28.1v-12zm36.9 0v12h28.1v-12zm-232 14.3v11.6h28.1v-1.15l0.767 1.15h37.4l-8.29-11.6zm79.1 0v11.6h28.1v-11.6zm36.9 0v11.6h28.1v-11.6zm79.1 0v11.6h28.1v-11.6zm36.9 0v11.6h98.5v-11.6zm-232 14.3v11.1h28.1v-11.1zm31 0 7.79 11.1h37.5l-7.79-11.1zm48.2 0v11.1h28.1v-11.1zm36.9 0v11.1h28.1v-11.1zm79.1 0v11.1h28.1v-11.1zm36.9 0v11.1h98.5v-11.1zm-232 14.2v10.6h28.1v-10.6zm41.1 0 7.62 10.6h58.5v-10.6h-28.1v0.846l-0.564-0.846zm74.9 0v10.6h28.1v-10.6zm79.1 0v10.6h28.1v-10.6zm36.9 0v10.6h28.1v-10.6zm-232 14.2v10.3h28.1v-10.3zm51.3 0 7.35 10.3h48.6v-10.3zm64.8 0v10.3h28.1v-10.3zm79.1 0v10.3h28.1v-10.3zm36.9 0v10.3h28.1v-10.3zm-232 14.2v9.85h28.1v-9.85zm61.4 0 7.06 9.85h38.8v-9.85zm54.6 0v9.85h107c0.179-1.1 0.301-2.14 0.301-3.05v-6.8zm116 0v9.85h28.1v-9.85zm-232 14.2v11h28.1v-11zm71.6 0 7.86 11h27.8v-11zm44.4 0v11h88.8c7.63 0 13.3-3.69 16.9-11zm116 0v11h28.1v-11z" style="fill:#f00;mix-blend-mode:lighten"/>
	<path id="NDF_green" d="m87 60.8v12.3h36.6l-8.79-12.3zm79.1 0v12.3h28.1v-12.3zm36.9 0v12.3h106c-3.63-8.19-9.49-12.3-17.6-12.3zm135 0c-8.09 0-14 4.09-17.6 12.3h97.6v-12.3zm-251 14v12.2h46.5l-8.73-12.2zm79.1 0v12.2h28.1v-12.2zm36.9 0v12.2h107v-7.81c0-1.29-0.175-2.75-0.526-4.39zm117 0c-0.352 1.64-0.529 3.1-0.529 4.39v7.81h98.5v-12.2zm-233 14.1v12h56.4l-8.56-12zm79.1 0v12h28.1v-12zm36.9 0v12h28.1v-12zm79.1 0v12h28.1v-12zm36.9 0v12h28.1v-12zm-232 14.3v11.6h28.1v-1.15l0.767 1.15h37.4l-8.29-11.6zm79.1 0v11.6h28.1v-11.6zm36.9 0v11.6h28.1v-11.6zm79.1 0v11.6h28.1v-11.6zm36.9 0v11.6h98.5v-11.6zm-232 14.3v11.1h28.1v-11.1zm31 0 7.79 11.1h37.5l-7.79-11.1zm48.2 0v11.1h28.1v-11.1zm36.9 0v11.1h28.1v-11.1zm79.1 0v11.1h28.1v-11.1zm36.9 0v11.1h98.5v-11.1zm-232 14.2v10.6h28.1v-10.6zm41.1 0 7.62 10.6h58.5v-10.6h-28.1v0.846l-0.564-0.846zm74.9 0v10.6h28.1v-10.6zm79.1 0v10.6h28.1v-10.6zm36.9 0v10.6h28.1v-10.6zm-232 14.2v10.3h28.1v-10.3zm51.3 0 7.35 10.3h48.6v-10.3zm64.8 0v10.3h28.1v-10.3zm79.1 0v10.3h28.1v-10.3zm36.9 0v10.3h28.1v-10.3zm-232 14.2v9.85h28.1v-9.85zm61.4 0 7.06 9.85h38.8v-9.85zm54.6 0v9.85h107c0.179-1.1 0.301-2.14 0.301-3.05v-6.8zm116 0v9.85h28.1v-9.85zm-232 14.2v11h28.1v-11zm71.6 0 7.86 11h27.8v-11zm44.4 0v11h88.8c7.63 0 13.3-3.69 16.9-11zm116 0v11h28.1v-11z" style="fill:#0f0;mix-blend-mode:lighten"/>
</svg>
